<?xml version="1.0" encoding="UTF-8"?>
<svg fill="#FFFFFF" width="100pt" height="100pt" version="1.1" viewBox="0 0 100 100" xmlns="http://www.w3.org/2000/svg">
 <path d="m42.852 69.852h20.609l15.59 9.9492c0.32812 0.21094 0.69922 0.30859 1.0781 0.30859 0.32812 0 0.66016-0.078125 0.96094-0.25 0.64062-0.35156 1.0391-1.0195 1.0391-1.75v-33.238c0-13.77-11.211-24.98-24.98-24.98h-14.289c-6.6719 0-12.949 2.6016-17.66 7.3203-4.7188 4.7188-7.3203 10.988-7.3203 17.66 0 13.77 11.211 24.98 24.98 24.98zm-14.832-39.82c3.9609-3.9609 9.2305-6.1406 14.84-6.1406h14.289c11.57 0 20.98 9.4102 20.98 20.98v29.59l-13-8.3008c-0.32031-0.21094-0.69141-0.30859-1.0781-0.30859h-21.191c-11.57 0-20.98-9.4102-20.98-20.98 0-5.6016 2.1797-10.871 6.1406-14.84z"/>
 <path d="m42.078 37.129h15.828c1.1016 0 2-0.89844 2-2 0-1.1016-0.89844-2-2-2h-15.828c-1.1016 0-2 0.89844-2 2 0 1.1016 0.89844 2 2 2z"/>
 <path d="m42.078 46.32h15.828c1.1016 0 2-0.89844 2-2 0-1.1016-0.89844-2-2-2h-15.828c-1.1016 0-2 0.89844-2 2 0 1.1016 0.89844 2 2 2z"/>
 <path d="m42.078 55.512h15.828c1.1016 0 2-0.89844 2-2 0-1.1016-0.89844-2-2-2h-15.828c-1.1016 0-2 0.89844-2 2 0 1.1016 0.89844 2 2 2z"/>
</svg>
